<svg id="svg" version="1.1" width="400" height="401.76082171680116" viewBox="0 0 400 401.76082171680116" xmlns="http://www.w3.org/2000/svg" xmlns:xlink="http://www.w3.org/1999/xlink" ><g id="svgg"><path id="path0" d="M154.394 131.401 C 153.390 137.010,152.073 144.373,151.469 147.762 L 150.370 153.925 186.337 154.094 C 217.481 154.240,222.803 154.328,226.029 154.750 C 254.345 158.451,261.061 172.642,251.749 209.098 C 245.599 233.172,234.739 243.055,210.418 246.707 C 207.391 247.161,203.285 247.224,170.598 247.316 L 134.153 247.419 133.846 248.948 C 133.677 249.789,132.410 256.816,131.031 264.563 C 129.651 272.311,128.446 279.079,128.352 279.604 L 128.181 280.558 165.851 280.555 C 203.172 280.552,212.649 280.373,220.396 279.522 C 260.595 275.108,285.614 247.725,293.455 199.560 C 301.136 152.380,286.479 128.060,246.955 122.401 C 239.182 121.288,235.624 121.206,195.425 121.204 L 156.221 121.203 154.394 131.401 M119.100 184.759 C 110.699 186.279,105.748 190.983,103.195 199.867 C 102.466 202.407,99.193 216.316,99.193 216.878 C 99.193 217.499,177.934 217.108,180.191 216.475 C 187.532 214.418,192.121 209.698,194.376 201.889 C 195.197 199.044,198.386 185.411,198.386 184.744 C 198.386 184.105,122.638 184.119,119.100 184.759 " stroke="none" fill="#fbfbfc" fill-rule="evenodd"></path><path id="path1" d="M188.995 18.674 C 78.132 26.424,0.805 125.859,20.713 235.070 C 38.650 333.472,136.454 399.485,235.265 379.884 C 311.179 364.825,369.444 303.643,380.470 227.409 C 396.368 117.488,312.492 19.507,201.761 18.648 C 195.627 18.600,189.883 18.612,188.995 18.674 M237.417 121.211 C 280.974 124.240,299.300 145.669,295.106 188.672 C 290.137 239.626,266.292 271.520,227.834 278.650 C 218.368 280.406,219.465 280.370,171.719 280.481 L 127.883 280.583 128.046 279.910 C 128.136 279.540,129.483 272.109,131.040 263.396 C 132.597 254.684,133.945 247.435,134.036 247.287 C 134.137 247.124,146.428 247.099,165.047 247.224 C 203.460 247.480,209.487 247.221,218.530 244.928 C 239.259 239.672,248.018 228.405,253.689 199.707 C 259.700 169.286,250.870 156.733,222.010 154.665 C 219.622 154.494,203.741 154.369,184.079 154.368 C 152.240 154.366,150.257 154.336,150.257 153.859 C 150.257 153.301,155.768 122.250,156.013 121.423 C 156.193 120.819,229.049 120.630,237.417 121.211 M198.543 185.106 C 198.107 187.483,195.400 198.972,194.687 201.467 C 192.261 209.962,187.821 214.588,180.117 216.652 L 177.696 217.300 138.273 217.388 L 98.850 217.476 99.044 216.515 C 103.034 196.829,105.652 190.825,111.848 187.152 C 117.120 184.026,116.178 184.086,160.488 184.043 L 198.745 184.006 198.543 185.106 " stroke="none" fill="#048ce4" fill-rule="evenodd"></path><path id="path2" d="M239.162 234.116 L 238.151 235.216 239.252 234.205 C 240.276 233.264,240.487 233.015,240.263 233.015 C 240.214 233.015,239.719 233.511,239.162 234.116 " stroke="none" fill="#58b2ec" fill-rule="evenodd"></path><path id="path3" d="M175.298 121.130 C 185.923 121.173,203.223 121.173,213.743 121.130 C 224.262 121.087,215.569 121.052,194.424 121.052 C 173.280 121.052,164.673 121.087,175.298 121.130 M236.757 121.410 C 237.120 121.480,237.715 121.480,238.078 121.410 C 238.441 121.340,238.144 121.283,237.417 121.283 C 236.691 121.283,236.394 121.340,236.757 121.410 M166.934 154.292 C 176.187 154.335,191.242 154.335,200.389 154.292 C 209.537 154.249,201.966 154.214,183.566 154.214 C 165.165 154.214,157.681 154.249,166.934 154.292 M221.794 154.573 C 222.159 154.643,222.687 154.640,222.967 154.567 C 223.248 154.494,222.949 154.436,222.304 154.439 C 221.658 154.443,221.429 154.503,221.794 154.573 M295.311 171.974 C 295.311 172.700,295.368 172.997,295.438 172.634 C 295.508 172.271,295.508 171.676,295.438 171.313 C 295.368 170.950,295.311 171.247,295.311 171.974 M255.720 184.153 C 255.721 185.767,255.770 186.390,255.829 185.537 C 255.889 184.684,255.888 183.363,255.828 182.602 C 255.768 181.841,255.719 182.539,255.720 184.153 M295.319 183.125 C 295.319 184.013,295.374 184.376,295.441 183.933 C 295.509 183.489,295.509 182.762,295.441 182.318 C 295.374 181.875,295.319 182.238,295.319 183.125 M160.512 184.225 C 190.201 184.285,198.261 184.379,198.465 184.667 C 198.656 184.937,198.693 184.918,198.604 184.593 C 198.498 184.204,194.030 184.152,160.651 184.151 L 122.817 184.149 160.512 184.225 M98.899 217.241 C 98.899 217.362,116.034 217.430,136.977 217.391 C 157.920 217.352,168.914 217.286,161.409 217.245 C 125.360 217.044,98.899 217.042,98.899 217.241 M202.278 247.313 C 202.725 247.380,203.385 247.378,203.746 247.309 C 204.107 247.239,203.742 247.184,202.935 247.186 C 202.128 247.188,201.832 247.245,202.278 247.313 M213.870 280.178 C 214.235 280.248,214.763 280.246,215.044 280.172 C 215.324 280.099,215.026 280.041,214.380 280.045 C 213.734 280.048,213.505 280.108,213.870 280.178 M207.124 280.479 C 207.815 280.541,208.871 280.541,209.472 280.477 C 210.073 280.414,209.508 280.364,208.217 280.365 C 206.926 280.366,206.434 280.417,207.124 280.479 " stroke="none" fill="#8cc8f4" fill-rule="evenodd"></path><path id="path4" d="M233.382 121.112 C 233.665 121.186,234.127 121.186,234.409 121.112 C 234.692 121.038,234.461 120.978,233.896 120.978 C 233.331 120.978,233.100 121.038,233.382 121.112 M247.689 162.968 C 247.689 163.018,248.118 163.448,248.643 163.922 L 249.596 164.784 248.735 163.830 C 247.931 162.941,247.689 162.741,247.689 162.968 M295.616 177.403 C 295.617 178.371,295.672 178.732,295.737 178.205 C 295.803 177.677,295.801 176.885,295.734 176.444 C 295.667 176.003,295.614 176.434,295.616 177.403 M142.553 247.322 C 147.274 247.367,155.000 247.367,159.721 247.322 C 164.442 247.277,160.580 247.240,151.137 247.240 C 141.695 247.240,137.832 247.277,142.553 247.322 M199.340 247.312 C 199.784 247.379,200.510 247.379,200.954 247.312 C 201.398 247.245,201.034 247.190,200.147 247.190 C 199.259 247.190,198.896 247.245,199.340 247.312 " stroke="none" fill="#34a4ec" fill-rule="evenodd"></path></g></svg>